<svg width="48" height="48" viewBox="0 0 48 48" fill="none" xmlns="http://www.w3.org/2000/svg">
<g clip-path="url(#clip0_118_16695)">
<path d="M47.2969 22.7625L39.6937 18.5438C39.2437 18.3188 38.7374 18.3188 38.2875 18.5438L35.25 20.2598V8.53125H12.75V20.2598L9.71241 18.5438C9.2625 18.3188 8.75625 18.3188 8.30616 18.5438L0.703125 22.7625C0.281156 23.0155 0 23.4938 0 24C0 24.5063 0.281156 24.9843 0.703125 25.2375L6.1125 28.2188L20.4844 40.7063H27.5156L41.8875 28.2188L47.2969 25.2375C47.7188 24.9843 48 24.5063 48 24C48 23.4938 47.7188 23.0155 47.2969 22.7625ZM24 26.6156L16.8811 22.5938H31.1188L24 26.6156Z" fill="url(#paint0_linear_118_16695)"/>
<path d="M47.2969 31.2L41.8875 28.2188L24.7031 37.8938C24.4781 38.0062 24.225 38.0625 24 38.0625C23.775 38.0625 23.5219 38.0062 23.2969 37.8938L6.1125 28.2188L0.703125 31.2C0.281156 31.453 0 31.9312 0 32.4375C0 32.9438 0.281156 33.4218 0.703125 33.675L23.2969 46.3313C23.5219 46.4437 23.775 46.5 24 46.5C24.225 46.5 24.4781 46.4437 24.7031 46.3313L47.2969 33.675C47.7188 33.4218 48 32.9438 48 32.4375C48 31.9312 47.7188 31.453 47.2969 31.2ZM0.703125 16.8L23.2969 29.4563C23.5219 29.5687 23.775 29.625 24 29.625C24.225 29.625 24.4781 29.5687 24.7031 29.4563L47.2969 16.8C47.7188 16.5468 48 16.0688 48 15.5625C48 15.0562 47.7188 14.578 47.2969 14.325L24.7031 1.66875C24.2532 1.44375 23.7468 1.44375 23.2969 1.66875L0.703125 14.325C0.281156 14.578 0 15.0562 0 15.5625C0 16.0688 0.281156 16.5468 0.703125 16.8ZM28.6407 13.7343C28.0782 13.1999 28.0782 12.2999 28.6407 11.7655C29.1751 11.2031 30.075 11.2031 30.6094 11.7655L33.4219 14.578C33.9844 15.1124 33.9844 16.0124 33.4219 16.5468L30.6094 19.3593C30.1035 19.9218 29.1469 19.922 28.6407 19.3593C28.0782 18.8249 28.0782 17.9249 28.6407 17.3905L30.4405 15.5625L28.6407 13.7343ZM21.9188 18.0375L23.325 12.4125C23.5219 11.653 24.2812 11.2031 25.0406 11.3998C25.8001 11.5686 26.25 12.328 26.0813 13.0874L24.675 18.7124C24.4354 19.6311 23.3976 19.9443 22.9594 19.7249C22.2 19.5563 21.75 18.7968 21.9188 18.0375ZM14.5782 14.578L17.3907 11.7655C17.9251 11.2031 18.825 11.2031 19.3594 11.7655C19.9219 12.2999 19.9219 13.1999 19.3594 13.7343L17.5595 15.5625L19.3593 17.3905C19.9218 17.9249 19.9218 18.8249 19.3593 19.3593C18.8534 19.9218 17.8968 19.922 17.3906 19.3593L14.5781 16.5468C14.0156 16.0124 14.0156 15.1124 14.5782 14.578Z" fill="url(#paint1_linear_118_16695)"/>
</g>
<defs>
<linearGradient id="paint0_linear_118_16695" x1="24" y1="40.7063" x2="24" y2="8.53125" gradientUnits="userSpaceOnUse">
<stop stop-color="#ADDCFF"/>
<stop offset="0.5028" stop-color="#EAF6FF"/>
<stop offset="1" stop-color="#EAF6FF"/>
</linearGradient>
<linearGradient id="paint1_linear_118_16695" x1="24" y1="46.5" x2="24" y2="1.5" gradientUnits="userSpaceOnUse">
<stop stop-color="#0C7475"/>
<stop offset="1" stop-color="#0EAE57"/>
</linearGradient>
<clipPath id="clip0_118_16695">
<rect width="48" height="48" fill="white"/>
</clipPath>
</defs>
</svg>
